<svg width="12" height="13" viewBox="0 0 12 13" fill="none" xmlns="http://www.w3.org/2000/svg">
<path d="M11.1445 6.8291C11.1445 6.95801 11.0938 7.06934 10.9922 7.16309L7.28906 10.8662C7.19141 10.9561 7.08398 11.001 6.9668 11.001C6.8418 11.001 6.73633 10.96 6.65039 10.8779C6.56836 10.7998 6.52734 10.6982 6.52734 10.5732C6.52734 10.5146 6.53711 10.458 6.55664 10.4033C6.58008 10.3447 6.61133 10.2959 6.65039 10.2568L8.05664 8.82715L10.1309 6.92871L10.2363 7.1748L8.51367 7.27441H1.30078C1.16797 7.27441 1.06055 7.2334 0.978516 7.15137C0.896484 7.06934 0.855469 6.96191 0.855469 6.8291C0.855469 6.7002 0.896484 6.59473 0.978516 6.5127C1.06055 6.43066 1.16797 6.38965 1.30078 6.38965H8.51367L10.2363 6.4834L10.1309 6.74121L8.05664 4.83691L6.65039 3.40723C6.61133 3.36816 6.58008 3.32129 6.55664 3.2666C6.53711 3.20801 6.52734 3.14941 6.52734 3.09082C6.52734 2.96582 6.56836 2.86426 6.65039 2.78613C6.73633 2.7041 6.8418 2.66309 6.9668 2.66309C7.02539 2.66309 7.08203 2.6748 7.13672 2.69824C7.19531 2.72168 7.25391 2.76074 7.3125 2.81543L10.9922 6.50098C11.0938 6.59473 11.1445 6.7041 11.1445 6.8291Z" fill="#FEFEFE"/>
</svg>
