<svg width="12" height="12" viewBox="0 0 12 12" fill="none" xmlns="http://www.w3.org/2000/svg">
<path d="M1.74869 12C1.55335 12 1.38934 11.9337 1.25666 11.8011C1.12398 11.6685 1.05764 11.5083 1.05764 11.3204V1.31492C1.05764 0.983425 1.15162 0.725599 1.33959 0.541436C1.52755 0.357274 1.79291 0.243094 2.13567 0.198895C2.69588 0.132597 3.31137 0.0828729 3.98215 0.0497238C4.65661 0.0165746 5.32923 0 6.00001 0C6.67078 0 7.3434 0.0184162 8.01786 0.0552486C8.69233 0.0883978 9.30782 0.13628 9.86434 0.198895C10.2071 0.243094 10.4725 0.357274 10.6604 0.541436C10.8484 0.725599 10.9424 0.983425 10.9424 1.31492V11.3204C10.9424 11.5083 10.876 11.6685 10.7434 11.8011C10.6107 11.9337 10.4485 12 10.2569 12H9.64321C9.45156 12 9.28939 11.9337 9.15671 11.8011C9.02403 11.6685 8.95769 11.5083 8.95769 11.3204V10.4641C8.44908 10.4972 7.94415 10.523 7.44291 10.5414C6.94536 10.5599 6.46439 10.5691 6.00001 10.5691C5.53194 10.5691 5.04913 10.558 4.55157 10.5359C4.05402 10.5175 3.55094 10.4899 3.04233 10.453V11.3204C3.04233 11.5083 2.97598 11.6685 2.8433 11.8011C2.71062 11.9337 2.54846 12 2.35681 12H1.74869ZM2.53924 7.0442C2.96677 7.10313 3.41088 7.15101 3.87158 7.18785C4.33228 7.22468 4.80035 7.24862 5.27579 7.25967C5.75123 7.27072 6.22851 7.27072 6.70764 7.25967C7.18676 7.24862 7.65668 7.22468 8.11737 7.18785C8.58176 7.15101 9.02956 7.10313 9.46077 7.0442C9.79984 6.99263 9.96938 6.7919 9.96938 6.44199V1.76243C9.96938 1.36464 9.77957 1.14549 9.39996 1.10497C9.03508 1.06446 8.66284 1.03315 8.28323 1.01105C7.9073 0.985267 7.52952 0.966851 7.14991 0.955801C6.77029 0.941068 6.38884 0.933702 6.00553 0.933702C5.62592 0.933702 5.24446 0.941068 4.86116 0.955801C4.48155 0.966851 4.10377 0.985267 3.72784 1.01105C3.35191 1.03315 2.97783 1.06446 2.60558 1.10497C2.22228 1.14549 2.03063 1.36464 2.03063 1.76243V6.44199C2.03063 6.7919 2.20017 6.99263 2.53924 7.0442ZM2.882 9.31492C3.06628 9.31492 3.21923 9.25414 3.34086 9.1326C3.46248 9.00737 3.52329 8.85267 3.52329 8.66851C3.52329 8.48435 3.46248 8.32965 3.34086 8.20442C3.21923 8.07919 3.06628 8.01657 2.882 8.01657C2.69404 8.01657 2.5374 8.07919 2.41209 8.20442C2.29047 8.32965 2.22965 8.48435 2.22965 8.66851C2.22965 8.85267 2.29047 9.00737 2.41209 9.1326C2.5374 9.25414 2.69404 9.31492 2.882 9.31492ZM4.83905 9.09945H7.14438C7.27706 9.09945 7.38394 9.05893 7.46503 8.9779C7.54611 8.89687 7.58665 8.79006 7.58665 8.65746C7.58665 8.52486 7.54611 8.41989 7.46503 8.34254C7.38394 8.26151 7.27706 8.22099 7.14438 8.22099H4.83905C4.70637 8.22099 4.59948 8.26151 4.5184 8.34254C4.43732 8.41989 4.39678 8.52486 4.39678 8.65746C4.39678 8.79006 4.43732 8.89687 4.5184 8.9779C4.59948 9.05893 4.70637 9.09945 4.83905 9.09945ZM9.11801 9.31492C9.30229 9.31492 9.45708 9.25414 9.58239 9.1326C9.7077 9.00737 9.77036 8.85267 9.77036 8.66851C9.77036 8.48435 9.7077 8.32965 9.58239 8.20442C9.45708 8.07919 9.30229 8.01657 9.11801 8.01657C8.93373 8.01657 8.77894 8.07919 8.65363 8.20442C8.532 8.32965 8.47119 8.48435 8.47119 8.66851C8.47119 8.85267 8.532 9.00737 8.65363 9.1326C8.77894 9.25414 8.93373 9.31492 9.11801 9.31492ZM1.05764 4.82873H0.825446C0.685394 4.82873 0.571141 4.79006 0.482687 4.71271C0.394233 4.63536 0.350006 4.53039 0.350006 4.39779V2.36464C0.350006 2.23204 0.394233 2.12707 0.482687 2.04972C0.571141 1.96869 0.685394 1.92818 0.825446 1.92818H1.05764V4.82873ZM10.9424 4.82873V1.92818H11.1746C11.3183 1.92818 11.4326 1.96869 11.5173 2.04972C11.6058 2.12707 11.65 2.23204 11.65 2.36464V4.39779C11.65 4.53039 11.6058 4.63536 11.5173 4.71271C11.4326 4.79006 11.3183 4.82873 11.1746 4.82873H10.9424Z" fill="#FEFEFE"/>
</svg>
