<svg width="12" height="12" viewBox="0 0 12 12" fill="none" xmlns="http://www.w3.org/2000/svg">
<path d="M7.53516 8.4655C7.21902 8.4655 6.88413 8.46282 6.53048 8.45746C6.17683 8.44943 5.82987 8.43871 5.48962 8.42531C5.14936 8.41192 4.8359 8.39718 4.54923 8.38111C4.26524 8.36235 4.03349 8.34226 3.85399 8.32083C3.60482 8.29135 3.41192 8.20964 3.27528 8.07568C3.13865 7.93904 3.07033 7.75016 3.07033 7.50904V6.84192C3.07033 6.62491 3.0864 6.43737 3.11855 6.2793C3.1507 6.11855 3.20161 5.96851 3.27127 5.8292C3.34092 5.68988 3.43336 5.54655 3.54856 5.39919L3.87006 4.98526C3.91561 4.75485 3.97053 4.52846 4.03483 4.30609C4.10181 4.08372 4.16745 3.88412 4.23175 3.7073C4.29605 3.52779 4.34963 3.39249 4.3925 3.3014C4.49431 3.08439 4.63898 2.91426 4.82652 2.79102C5.01674 2.66778 5.23376 2.59008 5.47756 2.55793C5.5633 2.54989 5.70663 2.54186 5.90757 2.53382C6.11119 2.52578 6.35231 2.51908 6.63094 2.51373C6.91226 2.50837 7.21366 2.50569 7.53516 2.50569C7.85666 2.50569 8.15673 2.50837 8.43537 2.51373C8.71668 2.5164 8.9578 2.52176 9.15874 2.5298C9.36236 2.53784 9.50703 2.54721 9.59277 2.55793C9.83657 2.59276 10.0522 2.6718 10.2398 2.79504C10.43 2.9156 10.576 3.08439 10.6778 3.3014C10.7207 3.39249 10.7743 3.52779 10.8386 3.7073C10.9029 3.88412 10.9672 4.08372 11.0315 4.30609C11.0985 4.52846 11.1547 4.75485 11.2003 4.98526L11.5218 5.39919C11.637 5.54655 11.7294 5.68988 11.7991 5.8292C11.8687 5.96851 11.9196 6.11855 11.9518 6.2793C11.9839 6.43737 12 6.62491 12 6.84192V7.50904C12 7.75016 11.9317 7.93904 11.795 8.07568C11.6584 8.20964 11.4655 8.29135 11.2163 8.32083C11.0368 8.34226 10.8038 8.36235 10.5171 8.38111C10.2331 8.39718 9.92096 8.41192 9.58071 8.42531C9.24046 8.43871 8.8935 8.44943 8.53985 8.45746C8.18888 8.46282 7.85399 8.4655 7.53516 8.4655ZM4.60549 4.6718C4.5921 4.73878 4.59879 4.787 4.62559 4.81647C4.65506 4.84594 4.70462 4.85934 4.77428 4.85666C4.98861 4.84058 5.22036 4.82719 5.46952 4.81647C5.72137 4.80308 6.0134 4.7937 6.34561 4.78834C6.67783 4.7803 7.07435 4.77628 7.53516 4.77628C7.9933 4.77628 8.38848 4.7803 8.7207 4.78834C9.05559 4.7937 9.34762 4.80308 9.59679 4.81647C9.84863 4.82719 10.0817 4.84058 10.296 4.85666C10.3684 4.85934 10.418 4.84594 10.4447 4.81647C10.4742 4.787 10.4796 4.73878 10.4608 4.6718C10.4287 4.52712 10.3885 4.37709 10.3403 4.2217C10.2947 4.0663 10.2478 3.92297 10.1996 3.79169C10.1514 3.66041 10.1058 3.5586 10.063 3.48626C10.0067 3.39517 9.94508 3.32685 9.8781 3.28131C9.8138 3.23308 9.72539 3.20093 9.61286 3.18486C9.47086 3.16342 9.23108 3.14869 8.8935 3.14065C8.55861 3.12993 8.10583 3.12458 7.53516 3.12458C6.96718 3.12458 6.5144 3.12993 6.17683 3.14065C5.84193 3.15137 5.6008 3.1661 5.45345 3.18486C5.3436 3.20093 5.25519 3.23308 5.18821 3.28131C5.12123 3.32685 5.06229 3.39517 5.01139 3.48626C4.9712 3.5586 4.92565 3.66041 4.87475 3.79169C4.82384 3.92297 4.77428 4.0663 4.72606 4.2217C4.68051 4.37709 4.64032 4.52712 4.60549 4.6718ZM4.79437 7.4367C4.96316 7.4367 5.10382 7.38044 5.21634 7.26791C5.32887 7.15539 5.38513 7.01473 5.38513 6.84594C5.38513 6.67715 5.32887 6.5365 5.21634 6.42397C5.10382 6.31145 4.96316 6.25519 4.79437 6.25519C4.62559 6.25519 4.48493 6.31145 4.3724 6.42397C4.25988 6.5365 4.20362 6.67715 4.20362 6.84594C4.20362 7.01473 4.25988 7.15539 4.3724 7.26791C4.48493 7.38044 4.62559 7.4367 4.79437 7.4367ZM6.54253 7.30408H8.53182C8.65506 7.30408 8.75553 7.26523 8.83322 7.18754C8.9136 7.10716 8.95378 7.00267 8.95378 6.87407C8.95378 6.75083 8.9136 6.65036 8.83322 6.57267C8.75553 6.49229 8.65506 6.4521 8.53182 6.4521H6.54253C6.41661 6.4521 6.31346 6.49229 6.23309 6.57267C6.15539 6.65036 6.11654 6.75083 6.11654 6.87407C6.11654 7.00267 6.15539 7.10716 6.23309 7.18754C6.31346 7.26523 6.41661 7.30408 6.54253 7.30408ZM10.276 7.4367C10.4447 7.4367 10.5854 7.38044 10.6979 7.26791C10.8104 7.15539 10.8667 7.01473 10.8667 6.84594C10.8667 6.67715 10.8104 6.5365 10.6979 6.42397C10.5854 6.31145 10.4447 6.25519 10.276 6.25519C10.1072 6.25519 9.96651 6.31145 9.85399 6.42397C9.74146 6.5365 9.6852 6.67715 9.6852 6.84594C9.6852 7.01473 9.74146 7.15539 9.85399 7.26791C9.96651 7.38044 10.1072 7.4367 10.276 7.4367ZM3.57267 9.50234C3.428 9.50234 3.30743 9.45411 3.21098 9.35766C3.11721 9.26389 3.07033 9.14601 3.07033 9.00401V7.38044L4.50904 8.07166V9.00401C4.50904 9.14601 4.46082 9.26389 4.36437 9.35766C4.2706 9.45411 4.15271 9.50234 4.01072 9.50234H3.57267ZM11.0596 9.50234C10.9176 9.50234 10.7984 9.45411 10.7019 9.35766C10.6082 9.26389 10.5613 9.14601 10.5613 9.00401V8.07166L12 7.38044V9.00401C12 9.14601 11.9518 9.26389 11.8553 9.35766C11.7589 9.45411 11.641 9.50234 11.5017 9.50234H11.0596ZM1.53516 4.69993C1.52177 4.76959 1.52847 4.81915 1.55526 4.84862C1.58205 4.87541 1.63161 4.88613 1.70395 4.88077C1.85666 4.87005 2.01741 4.86068 2.1862 4.85264C2.35499 4.8446 2.54119 4.8379 2.74481 4.83255C2.94843 4.82451 3.1775 4.81781 3.43202 4.81245L3.37575 4.98526L3.05827 5.39919C2.88948 5.62156 2.76758 5.83723 2.69257 6.04621C2.61755 6.25519 2.58004 6.52176 2.58004 6.84594V8.42933C2.21567 8.41594 1.87408 8.4012 1.55526 8.38513C1.23912 8.36637 0.983255 8.34494 0.787676 8.32083C0.538513 8.29135 0.345613 8.20964 0.208975 8.07568C0.0750167 7.94172 0.00669792 7.75418 0.00401875 7.51306L0 6.84594C0 6.62893 0.016075 6.44139 0.0482251 6.28332C0.0803751 6.12257 0.131279 5.97253 0.200938 5.83322C0.273275 5.6939 0.365707 5.54922 0.478232 5.39919L0.799732 4.98526C0.842599 4.75485 0.896182 4.52846 0.960482 4.30609C1.02478 4.08372 1.08908 3.88412 1.15338 3.7073C1.21768 3.52779 1.27127 3.39249 1.31413 3.3014C1.41594 3.08439 1.56062 2.91292 1.74816 2.787C1.93838 2.66108 2.15673 2.58338 2.40322 2.55391C2.51574 2.5432 2.74079 2.53248 3.07837 2.52176C3.41862 2.51105 3.85532 2.50301 4.38848 2.49765C4.27863 2.5941 4.19156 2.69457 4.12726 2.79906C4.06564 2.90354 4.00938 3.02143 3.95847 3.15271C3.5432 3.15539 3.20697 3.16342 2.94977 3.17682C2.69524 3.18754 2.50636 3.20093 2.38312 3.21701C2.27328 3.23308 2.18486 3.26389 2.11788 3.30944C2.0509 3.35498 1.99062 3.4233 1.93704 3.51439C1.89685 3.58941 1.85131 3.69256 1.8004 3.82384C1.75218 3.95244 1.70395 4.09444 1.65573 4.24983C1.61018 4.40522 1.56999 4.55525 1.53516 4.69993ZM1.43068 7.25987C1.58607 7.25987 1.71601 7.20763 1.8205 7.10314C1.92498 6.99865 1.97723 6.86872 1.97723 6.71332C1.97723 6.55793 1.92498 6.42799 1.8205 6.3235C1.71601 6.21902 1.58607 6.16677 1.43068 6.16677C1.27528 6.16677 1.14534 6.21902 1.04086 6.3235C0.939049 6.42799 0.888145 6.55793 0.888145 6.71332C0.888145 6.86872 0.939049 6.99865 1.04086 7.10314C1.14534 7.20763 1.27528 7.25987 1.43068 7.25987ZM0.502344 9.50234C0.363027 9.50234 0.245144 9.45545 0.148694 9.36168C0.0522438 9.26791 0.00401875 9.15003 0.00401875 9.00803V7.28801L1.44273 7.97119V9.00401C1.44273 9.14601 1.39585 9.26389 1.30208 9.35766C1.20831 9.45411 1.09042 9.50234 0.948426 9.50234H0.502344Z" fill="#FEFEFE"/>
</svg>
