<svg width="12" height="12" viewBox="0 0 12 12" fill="none" xmlns="http://www.w3.org/2000/svg">
<path d="M6 11.7119C5.59916 11.7119 5.21921 11.5699 4.86013 11.286C4.50104 11.0063 4.18372 10.6117 3.90814 10.1023C3.63674 9.58873 3.4238 8.98539 3.26931 8.29228C3.11482 7.59916 3.03758 6.83925 3.03758 6.01253C3.03758 5.18998 3.11482 4.43006 3.26931 3.73278C3.4238 3.03549 3.63674 2.43006 3.90814 1.91649C4.18372 1.40292 4.49896 1.00626 4.85386 0.726514C5.21294 0.446764 5.59499 0.306889 6 0.306889C6.40501 0.306889 6.78497 0.446764 7.13987 0.726514C7.49896 1.00626 7.81628 1.40292 8.09186 1.91649C8.36743 2.43006 8.58246 3.03549 8.73695 3.73278C8.89144 4.43006 8.96869 5.18998 8.96869 6.01253C8.96869 6.83925 8.88935 7.59916 8.73069 8.29228C8.5762 8.98539 8.36117 9.58873 8.0856 10.1023C7.8142 10.6117 7.49896 11.0063 7.13987 11.286C6.78497 11.5699 6.40501 11.7119 6 11.7119ZM6 0.958246C5.70772 0.958246 5.42589 1.09186 5.15449 1.35908C4.88309 1.6263 4.64301 1.99374 4.43424 2.46138C4.22965 2.92902 4.06681 3.46764 3.94572 4.07724C3.82463 4.68685 3.76409 5.33194 3.76409 6.01253C3.76409 6.68476 3.82463 7.32359 3.94572 7.92902C4.06681 8.53445 4.22965 9.07307 4.43424 9.54489C4.64301 10.0125 4.88309 10.38 5.15449 10.6472C5.42589 10.9186 5.70772 11.0543 6 11.0543C6.29645 11.0543 6.57829 10.9186 6.84551 10.6472C7.11691 10.38 7.35491 10.0125 7.5595 9.54489C7.76827 9.07307 7.93319 8.53445 8.05428 7.92902C8.17537 7.32359 8.23591 6.68476 8.23591 6.01253C8.23591 5.33194 8.17537 4.68685 8.05428 4.07724C7.93319 3.46764 7.76827 2.92902 7.5595 2.46138C7.35491 1.99374 7.11691 1.6263 6.84551 1.35908C6.57829 1.09186 6.29645 0.958246 6 0.958246ZM5.64301 0.388309H6.35699V11.5992H5.64301V0.388309ZM6 8.27975C6.60543 8.27975 7.17745 8.32985 7.71608 8.43006C8.25887 8.53027 8.7453 8.67223 9.17537 8.85595C9.6096 9.03549 9.96451 9.25052 10.2401 9.50104L9.6952 9.95198C9.29854 9.64718 8.78706 9.41127 8.16075 9.24426C7.53445 9.07724 6.8142 8.99374 6 8.99374C5.18998 8.99374 4.46973 9.07724 3.83925 9.24426C3.21294 9.41127 2.70146 9.64718 2.3048 9.95198L1.75992 9.50104C2.03967 9.25052 2.39457 9.03549 2.82463 8.85595C3.2547 8.67223 3.74113 8.53027 4.28393 8.43006C4.82672 8.32985 5.39875 8.27975 6 8.27975ZM11.4802 5.64927V6.35699H0.519833V5.64927H11.4802ZM6 3.75157C5.39875 3.75157 4.82672 3.70146 4.28393 3.60125C3.74113 3.50104 3.2547 3.35908 2.82463 3.17537C2.39457 2.99165 2.03967 2.77662 1.75992 2.53027L2.3048 2.07933C2.70146 2.38831 3.21294 2.6263 3.83925 2.79332C4.46973 2.95616 5.18998 3.03758 6 3.03758C6.8142 3.03758 7.53445 2.95616 8.16075 2.79332C8.78706 2.6263 9.29854 2.38831 9.6952 2.07933L10.2401 2.53027C9.96451 2.77662 9.6096 2.99165 9.17537 3.17537C8.7453 3.35908 8.25887 3.50104 7.71608 3.60125C7.17745 3.70146 6.60543 3.75157 6 3.75157ZM6 12C5.17745 12 4.40501 11.8434 3.68267 11.5303C2.96033 11.2171 2.32359 10.785 1.77244 10.2338C1.22129 9.68267 0.787056 9.04593 0.469729 8.32359C0.156576 7.59708 0 6.82255 0 6C0 5.18163 0.156576 4.41127 0.469729 3.68894C0.782881 2.96242 1.21503 2.32359 1.76618 1.77244C2.3215 1.21712 2.96033 0.782881 3.68267 0.469729C4.40501 0.156576 5.17537 0 5.99374 0C6.81628 0 7.58873 0.156576 8.31106 0.469729C9.0334 0.782881 9.67015 1.21712 10.2213 1.77244C10.7766 2.32359 11.2109 2.96242 11.524 3.68894C11.8413 4.41127 12 5.18163 12 6C12 6.82255 11.8434 7.59708 11.5303 8.32359C11.2171 9.04593 10.7829 9.68267 10.2276 10.2338C9.67641 10.785 9.03967 11.2171 8.31733 11.5303C7.59499 11.8434 6.82255 12 6 12ZM6 11.261C6.71816 11.261 7.39457 11.1232 8.02923 10.8476C8.66388 10.5762 9.22338 10.1983 9.70772 9.71399C10.1921 9.22965 10.572 8.67015 10.8476 8.03549C11.1232 7.39666 11.261 6.71816 11.261 6C11.261 5.28184 11.1232 4.60543 10.8476 3.97077C10.572 3.33612 10.1921 2.77662 9.70772 2.29228C9.22338 1.80793 8.66388 1.42797 8.02923 1.1524C7.39457 0.876827 6.71608 0.73904 5.99374 0.73904C5.27557 0.73904 4.59916 0.876827 3.96451 1.1524C3.32985 1.42797 2.77035 1.80793 2.28601 2.29228C1.80167 2.77662 1.42171 3.33612 1.14614 3.97077C0.874739 4.60543 0.73904 5.28184 0.73904 6C0.73904 6.71816 0.874739 7.39666 1.14614 8.03549C1.42171 8.67015 1.80167 9.22965 2.28601 9.71399C2.77035 10.1983 3.32985 10.5762 3.96451 10.8476C4.60334 11.1232 5.28184 11.261 6 11.261Z" fill="#222222"/>
</svg>
