<svg width="13" height="13" viewBox="0 0 13 13" fill="none" xmlns="http://www.w3.org/2000/svg">
<path d="M6.44737 2.84169C6.20128 2.84169 5.97667 2.7831 5.77354 2.66591C5.57432 2.54482 5.41417 2.38466 5.29307 2.18544C5.17589 1.98232 5.11729 1.75771 5.11729 1.51161C5.11729 1.26552 5.17784 1.04286 5.29893 0.843643C5.42003 0.640518 5.58018 0.480362 5.7794 0.363174C5.98253 0.242081 6.20518 0.181534 6.44737 0.181534C6.69346 0.181534 6.91612 0.242081 7.11534 0.363174C7.31846 0.480362 7.47862 0.640518 7.59581 0.843643C7.7169 1.04286 7.77745 1.26552 7.77745 1.51161C7.77745 1.75771 7.71885 1.98232 7.60167 2.18544C7.48448 2.38466 7.32432 2.54482 7.1212 2.66591C6.92198 2.7831 6.69737 2.84169 6.44737 2.84169ZM6.41221 7.57021C6.32237 7.57021 6.24425 7.59755 6.17784 7.65224C6.11534 7.70302 6.07042 7.78114 6.04307 7.88661L5.13487 11.3729C5.08409 11.5683 4.99034 11.7011 4.85362 11.7714C4.72081 11.8456 4.58018 11.8671 4.43175 11.8358C4.28721 11.8046 4.16807 11.7284 4.07432 11.6073C3.98057 11.4901 3.94932 11.3397 3.98057 11.1561C3.98839 11.0975 4.02159 10.9472 4.08018 10.705C4.13878 10.4667 4.20909 10.1796 4.29112 9.84364C4.37706 9.50771 4.463 9.16591 4.54893 8.81825C4.63878 8.4706 4.7169 8.15419 4.78331 7.86903C4.85362 7.58388 4.89854 7.37489 4.91807 7.24208C4.93761 7.12099 4.95128 6.96278 4.95909 6.76747C4.9669 6.56825 4.97081 6.35732 4.97081 6.13466C4.97081 5.9081 4.96886 5.6913 4.96495 5.48427C4.96495 5.27724 4.96495 5.0995 4.96495 4.95107C4.96495 4.86903 4.93565 4.81044 4.87706 4.77528C4.82237 4.74013 4.75206 4.73817 4.66612 4.76942L3.10753 5.39638C2.9044 5.48232 2.73253 5.48817 2.5919 5.41396C2.45518 5.33583 2.36534 5.22646 2.32237 5.08583C2.2794 4.95302 2.28917 4.8163 2.35167 4.67567C2.41417 4.53114 2.54307 4.41786 2.73839 4.33583L4.40831 3.65614C4.59971 3.57411 4.78721 3.50966 4.97081 3.46278C5.1544 3.41591 5.34581 3.38075 5.54503 3.35732C5.67393 3.42372 5.81261 3.47255 5.96104 3.5038C6.10948 3.53505 6.25987 3.55067 6.41221 3.55067C6.57237 3.55067 6.72471 3.53505 6.86925 3.5038C7.01378 3.47255 7.15245 3.42372 7.28526 3.35732C7.48448 3.38075 7.67589 3.41591 7.85948 3.46278C8.04307 3.50966 8.23253 3.57411 8.42784 3.65614L10.0919 4.33583C10.2872 4.41786 10.4161 4.53114 10.4786 4.67567C10.5411 4.8163 10.5509 4.95302 10.5079 5.08583C10.4649 5.22646 10.3732 5.33583 10.2325 5.41396C10.0958 5.48817 9.92589 5.48232 9.72276 5.39638L8.15831 4.76942C8.07628 4.73817 8.00596 4.74013 7.94737 4.77528C7.89268 4.81044 7.86534 4.86903 7.86534 4.95107C7.86534 5.0995 7.86339 5.27724 7.85948 5.48427C7.85557 5.6913 7.85362 5.9081 7.85362 6.13466C7.85362 6.35732 7.85753 6.56825 7.86534 6.76747C7.87315 6.96278 7.88878 7.12099 7.91221 7.24208C7.93565 7.37489 7.98057 7.58388 8.04698 7.86903C8.11339 8.15419 8.18956 8.4706 8.2755 8.81825C8.36534 9.16591 8.45128 9.50771 8.53331 9.84364C8.61925 10.1796 8.69151 10.4667 8.7501 10.705C8.8126 10.9472 8.84776 11.0975 8.85557 11.1561C8.87901 11.3397 8.84385 11.4901 8.7501 11.6073C8.66026 11.7284 8.54112 11.8046 8.39268 11.8358C8.24815 11.8671 8.10753 11.8456 7.97081 11.7714C7.838 11.7011 7.74815 11.5683 7.70128 11.3729L6.79307 7.88661C6.76573 7.78114 6.71885 7.70302 6.65245 7.65224C6.58604 7.59755 6.50596 7.57021 6.41221 7.57021Z" fill="#FEFEFE"/>
</svg>
