<svg width="13" height="13" viewBox="0 0 13 13" fill="none" xmlns="http://www.w3.org/2000/svg">
<path d="M3.6357 12.661C3.53023 12.786 3.40914 12.8485 3.27242 12.8485C3.1357 12.8524 3.01461 12.8114 2.90914 12.7255C2.80367 12.6395 2.74117 12.5262 2.72164 12.3856C2.70211 12.2489 2.75484 12.1044 2.87984 11.952L4.51461 10.0243L4.78414 8.76453L5.65719 9.87195L5.53414 10.2587C5.50289 10.3602 5.47359 10.4344 5.44625 10.4813C5.41891 10.5282 5.36422 10.6005 5.28219 10.6981L3.6357 12.661ZM7.65523 12.4969L6.5068 10.1708C6.48336 10.1239 6.46188 10.0829 6.44234 10.0477C6.42672 10.0087 6.38961 9.95593 6.33102 9.88953L5.22359 8.495C5.01656 8.23328 4.87203 8.00671 4.79 7.81531C4.71188 7.6239 4.68453 7.37585 4.70797 7.07117L4.80172 5.87C4.80563 5.79578 4.76852 5.74304 4.69039 5.71179C4.61617 5.68054 4.54195 5.69812 4.46773 5.76453L4.06344 6.12195L3.94039 7.55164C3.92477 7.72351 3.87203 7.85437 3.78219 7.94421C3.69234 8.03015 3.5732 8.06726 3.42477 8.05554C3.27242 8.05164 3.15523 7.9989 3.0732 7.89734C2.99117 7.79187 2.95602 7.65515 2.96773 7.48718L3.06734 6.19226C3.08297 6.01648 3.11813 5.86609 3.17281 5.74109C3.2275 5.61609 3.32125 5.48718 3.45406 5.35437L4.29781 4.5282C4.56344 4.26648 4.80758 4.06531 5.03023 3.92468C5.25289 3.78406 5.50875 3.71375 5.79781 3.71375C6.18063 3.71375 6.47555 3.8407 6.68258 4.0946C6.88961 4.3446 6.97945 4.65906 6.95211 5.03796L6.84078 6.62C6.82125 6.90125 6.79 7.14539 6.74703 7.35242C6.70406 7.55945 6.6357 7.80554 6.54195 8.0907L6.49508 8.24304L7.1982 9.25085C7.25289 9.32507 7.30758 9.4071 7.36227 9.49695C7.41695 9.58289 7.46578 9.66687 7.50875 9.7489L8.62789 12.0165C8.72164 12.204 8.73922 12.3641 8.68063 12.4969C8.62594 12.6337 8.53219 12.7313 8.39938 12.7899C8.27047 12.8485 8.13375 12.8563 7.98922 12.8134C7.84859 12.7704 7.73727 12.6649 7.65523 12.4969ZM9.55953 5.85828C9.71969 5.85828 9.84859 5.9032 9.94625 5.99304C10.0478 6.07898 10.0986 6.19617 10.0986 6.3446C10.0986 6.49695 10.0498 6.61804 9.95211 6.70789C9.85445 6.79382 9.72359 6.83679 9.55953 6.83679H8.37594C8.21578 6.83679 8.08688 6.82117 7.98922 6.78992C7.89547 6.75476 7.80758 6.69226 7.72555 6.60242L7.39156 6.26843L7.47945 4.95593L8.28805 5.85828H9.55953ZM6.40133 3.2157C6.18258 3.2157 5.98336 3.16296 5.80367 3.0575C5.62398 2.94812 5.47945 2.80359 5.37008 2.6239C5.26461 2.44421 5.21188 2.245 5.21188 2.02625C5.21188 1.80359 5.26461 1.60242 5.37008 1.42273C5.47945 1.24304 5.62398 1.10046 5.80367 0.994995C5.98336 0.88562 6.18258 0.830933 6.40133 0.830933C6.62398 0.830933 6.82516 0.88562 7.00484 0.994995C7.18453 1.10046 7.32711 1.24304 7.43258 1.42273C7.53805 1.60242 7.59078 1.80359 7.59078 2.02625C7.59078 2.245 7.53805 2.44421 7.43258 2.6239C7.32711 2.80359 7.18453 2.94812 7.00484 3.0575C6.82516 3.16296 6.62398 3.2157 6.40133 3.2157Z" fill="#FEFEFE"/>
</svg>
