<svg width="12" height="12" viewBox="0 0 12 12" fill="none" xmlns="http://www.w3.org/2000/svg">
<path d="M6 12C5.17745 12 4.40501 11.8434 3.68267 11.5303C2.96033 11.2171 2.32359 10.785 1.77244 10.2338C1.22129 9.68267 0.787056 9.04593 0.469729 8.32359C0.156576 7.59708 0 6.82255 0 6C0 5.18163 0.156576 4.41127 0.469729 3.68894C0.782881 2.96242 1.21503 2.32359 1.76618 1.77244C2.3215 1.21712 2.96033 0.782881 3.68267 0.469729C4.40501 0.156576 5.17537 0 5.99374 0C6.81628 0 7.58873 0.156576 8.31106 0.469729C9.0334 0.782881 9.67015 1.21712 10.2213 1.77244C10.7766 2.32359 11.2109 2.96242 11.524 3.68894C11.8413 4.41127 12 5.18163 12 6C12 6.82255 11.8434 7.59708 11.5303 8.32359C11.2171 9.04593 10.7829 9.68267 10.2276 10.2338C9.67641 10.785 9.03967 11.2171 8.31733 11.5303C7.59499 11.8434 6.82255 12 6 12ZM6.15658 9.54489C6.64509 9.54489 7.1023 9.45512 7.52818 9.27557C7.95825 9.09603 8.32985 8.85595 8.64301 8.55532C8.95616 8.25052 9.1858 7.91232 9.33194 7.54071C9.34447 7.50731 9.35282 7.4739 9.35699 7.4405C9.36117 7.4071 9.36326 7.38205 9.36326 7.36534C9.36326 7.30689 9.34238 7.26096 9.30063 7.22756C9.26305 7.18998 9.21712 7.17119 9.16284 7.17119C9.12944 7.17119 9.0856 7.17745 9.03132 7.18998C8.90605 7.23591 8.74113 7.27766 8.53653 7.31524C8.33612 7.35282 8.12526 7.37161 7.90397 7.37161C7.29019 7.37161 6.75574 7.24843 6.30063 7.00209C5.84551 6.75157 5.49269 6.40084 5.24217 5.9499C4.99165 5.49478 4.86639 4.96033 4.86639 4.34656C4.86639 4.14196 4.88727 3.92484 4.92902 3.6952C4.97495 3.46138 5.02505 3.2714 5.07933 3.12526C5.09603 3.08768 5.10647 3.05846 5.11065 3.03758C5.11482 3.01253 5.11691 2.99374 5.11691 2.98121C5.11691 2.93111 5.09812 2.88727 5.06054 2.84969C5.02714 2.80793 4.98121 2.78706 4.92276 2.78706C4.90188 2.78706 4.87474 2.79123 4.84134 2.79958C4.81211 2.80376 4.78079 2.81211 4.74739 2.82463C4.3215 2.98747 3.9499 3.238 3.63257 3.5762C3.31942 3.91023 3.07516 4.29854 2.89979 4.74113C2.7286 5.17954 2.64301 5.63674 2.64301 6.11273C2.64301 6.77662 2.79749 7.36743 3.10647 7.88518C3.41545 8.39875 3.83507 8.80376 4.36534 9.10021C4.89562 9.39666 5.49269 9.54489 6.15658 9.54489Z" fill="#222222"/>
</svg>
