<svg width="12" height="12" viewBox="0 0 12 12" fill="none" xmlns="http://www.w3.org/2000/svg">
<path d="M2.34433 9.71252C2.02025 9.71252 1.71709 9.6511 1.43483 9.52826C1.15256 9.40804 0.902973 9.24077 0.68605 9.02647C0.471741 8.81216 0.303169 8.56387 0.180333 8.28161C0.0601111 7.99935 0 7.69618 0 7.3721C0 7.04803 0.0601111 6.74486 0.180333 6.4626C0.303169 6.18034 0.471741 5.93205 0.68605 5.71774C0.902973 5.50082 1.15256 5.33225 1.43483 5.21203C1.71709 5.0918 2.02025 5.03169 2.34433 5.03169C2.66841 5.03169 2.97158 5.0918 3.25384 5.21203C3.5361 5.33225 3.78438 5.50082 3.99869 5.71774C4.213 5.93205 4.38027 6.18034 4.50049 6.4626C4.62333 6.74486 4.68474 7.04803 4.68474 7.3721C4.68474 7.69357 4.62333 7.99543 4.50049 8.27769C4.38027 8.55995 4.2117 8.80824 3.99477 9.02254C3.78046 9.23947 3.53218 9.40804 3.24992 9.52826C2.96766 9.6511 2.6658 9.71252 2.34433 9.71252ZM2.34433 9.18328C2.67625 9.18328 2.97942 9.10095 3.25384 8.9363C3.52826 8.77426 3.74649 8.55603 3.90853 8.28161C4.07318 8.00719 4.1555 7.70402 4.1555 7.3721C4.1555 7.04019 4.07318 6.73702 3.90853 6.4626C3.74649 6.18818 3.52826 5.96995 3.25384 5.80791C2.97942 5.64326 2.67625 5.56093 2.34433 5.56093C2.0098 5.56093 1.70533 5.64326 1.4309 5.80791C1.15648 5.96995 0.938255 6.18818 0.776217 6.4626C0.614178 6.73702 0.533159 7.04019 0.533159 7.3721C0.533159 7.70664 0.612872 8.01111 0.772297 8.28553C0.934335 8.55995 1.15256 8.77818 1.42698 8.94022C1.7014 9.10226 2.00719 9.18328 2.34433 9.18328ZM9.65959 9.71252C9.33551 9.71252 9.03104 9.6524 8.74616 9.53218C8.4639 9.41196 8.21562 9.24339 8.00131 9.02647C7.787 8.81216 7.61843 8.56387 7.49559 8.28161C7.37275 7.99935 7.31134 7.69618 7.31134 7.3721C7.31134 7.04803 7.37275 6.74486 7.49559 6.4626C7.61843 6.18034 7.787 5.93205 8.00131 5.71774C8.21562 5.50343 8.4639 5.33617 8.74616 5.21595C9.03104 5.09311 9.33551 5.03169 9.65959 5.03169C9.98105 5.03169 10.2829 5.09311 10.5652 5.21595C10.85 5.33617 11.0983 5.50343 11.31 5.71774C11.5243 5.93205 11.6929 6.18034 11.8157 6.4626C11.9386 6.74486 12 7.04803 12 7.3721C12 7.69618 11.9386 7.99935 11.8157 8.28161C11.6929 8.56387 11.5243 8.81216 11.31 9.02647C11.0983 9.24077 10.85 9.40804 10.5652 9.52826C10.2829 9.6511 9.98105 9.71252 9.65959 9.71252ZM9.65959 9.18328C9.99412 9.18328 10.2973 9.10226 10.5691 8.94022C10.8435 8.77818 11.0617 8.56126 11.2238 8.28945C11.3858 8.01503 11.4668 7.70925 11.4668 7.3721C11.4668 7.0428 11.3858 6.74094 11.2238 6.46652C11.0617 6.1921 10.8435 5.97256 10.5691 5.80791C10.2973 5.64326 9.99412 5.56093 9.65959 5.56093C9.32506 5.56093 9.02058 5.64326 8.74616 5.80791C8.47174 5.96995 8.25351 6.18818 8.09147 6.4626C7.92943 6.73702 7.84842 7.04019 7.84842 7.3721C7.84842 7.70925 7.92943 8.01503 8.09147 8.28945C8.25351 8.56387 8.47174 8.78079 8.74616 8.94022C9.02058 9.10226 9.32506 9.18328 9.65959 9.18328ZM6.33126 2.55015C6.33126 2.47697 6.3574 2.41555 6.40967 2.3659C6.46194 2.31363 6.52466 2.28749 6.59784 2.28749H7.66416C7.85495 2.28749 7.9804 2.36459 8.04051 2.51879L9.88696 7.27802L9.39301 7.44659L7.62496 2.84025C7.61712 2.81934 7.60013 2.80889 7.574 2.80889H6.59784C6.52466 2.80889 6.46194 2.78406 6.40967 2.7344C6.3574 2.68213 6.33126 2.62072 6.33126 2.55015ZM8.62071 4.77687L4.69258 5.36492V4.8788L8.62071 4.29076V4.77687ZM5.58641 7.68573H2.38353V7.19569H5.58641V7.68573ZM6.00588 8.13656C5.86475 8.13656 5.73669 8.10389 5.62169 8.03855C5.5067 7.9706 5.41522 7.87913 5.34727 7.76413C5.28193 7.64914 5.25057 7.52369 5.25319 7.38779C5.25319 7.24927 5.28716 7.12382 5.35511 7.01144C5.42306 6.89644 5.51323 6.80628 5.62561 6.74094C5.74061 6.67299 5.86736 6.63901 6.00588 6.63901C6.1444 6.63901 6.26985 6.67299 6.38223 6.74094C6.49722 6.80628 6.5887 6.89644 6.65665 7.01144C6.7246 7.12382 6.75858 7.24927 6.75858 7.38779C6.75858 7.52369 6.7246 7.64914 6.65665 7.76413C6.5887 7.87913 6.49722 7.9706 6.38223 8.03855C6.26985 8.10389 6.1444 8.13656 6.00588 8.13656ZM6.00588 7.67397C6.0869 7.67397 6.15485 7.64652 6.20974 7.59164C6.26462 7.53676 6.29206 7.47011 6.29206 7.39171C6.29206 7.31069 6.26462 7.24273 6.20974 7.18785C6.15485 7.13035 6.0869 7.1016 6.00588 7.1016C5.92747 7.1016 5.85952 7.13035 5.80203 7.18785C5.74714 7.24273 5.7197 7.31069 5.7197 7.39171C5.7197 7.4675 5.74714 7.53414 5.80203 7.59164C5.85952 7.64652 5.92747 7.67397 6.00588 7.67397ZM2.34433 7.82686C2.21366 7.82686 2.10389 7.78243 2.01503 7.69357C1.92878 7.60471 1.88566 7.49755 1.88566 7.3721C1.88827 7.24143 1.9327 7.13297 2.01895 7.04672C2.10781 6.95786 2.21627 6.91343 2.34433 6.91343C2.47239 6.91343 2.57955 6.95786 2.6658 7.04672C2.75466 7.13558 2.79909 7.24404 2.79909 7.3721C2.79909 7.49755 2.75466 7.60471 2.6658 7.69357C2.57694 7.78243 2.46978 7.82686 2.34433 7.82686ZM9.65959 7.83078C9.52891 7.83078 9.41914 7.78635 9.33028 7.69749C9.24142 7.60601 9.19699 7.49755 9.19699 7.3721C9.19961 7.24404 9.24534 7.13689 9.3342 7.05064C9.42306 6.96178 9.53153 6.91735 9.65959 6.91735C9.78765 6.91735 9.89481 6.96178 9.98105 7.05064C10.0673 7.13689 10.1104 7.24404 10.1104 7.3721C10.1104 7.49755 10.066 7.60601 9.97713 7.69749C9.89089 7.78635 9.78504 7.83078 9.65959 7.83078ZM5.92355 6.8115L8.04051 4.55342L8.64031 4.5887L6.35479 7.05848L5.92355 6.8115ZM2.1444 7.19569L4.38288 4.88664L4.79059 5.1885L2.57171 7.44267L2.1444 7.19569ZM5.50408 7.12905L3.7674 3.81248L4.27703 3.70271L5.93532 6.81934L5.50408 7.12905ZM3.09311 3.63999C3.09311 3.57204 3.11924 3.51193 3.17151 3.45966C3.22378 3.40739 3.2852 3.38125 3.35577 3.38125H4.77883C4.85201 3.38125 4.91343 3.40739 4.96308 3.45966C5.01535 3.51193 5.04149 3.57204 5.04149 3.63999C5.04149 3.71317 5.01666 3.77589 4.967 3.82816C4.91735 3.87782 4.85462 3.90265 4.77883 3.90265H3.35577C3.28259 3.90265 3.21986 3.87782 3.16759 3.82816C3.11794 3.77589 3.09311 3.71317 3.09311 3.63999Z" fill="#21A3FF"/>
</svg>
