<svg width="56" height="20" viewBox="0 0 56 20" fill="none" xmlns="http://www.w3.org/2000/svg">
<path d="M3.424 16.24C2.544 16.24 1.81067 16.0107 1.224 15.552C0.642667 15.0933 0.234667 14.4747 0 13.696L1.904 13.24C1.96267 13.5653 2.13333 13.8453 2.416 14.08C2.69867 14.3147 3.01067 14.432 3.352 14.432C3.576 14.432 3.81333 14.3733 4.064 14.256C4.31467 14.1333 4.50133 13.9387 4.624 13.672C4.69867 13.5013 4.74133 13.2987 4.752 13.064C4.768 12.824 4.776 12.5467 4.776 12.232V4.48H6.728V12.232C6.728 12.5893 6.72533 12.904 6.72 13.176C6.72 13.4427 6.69333 13.696 6.64 13.936C6.592 14.1707 6.49333 14.4133 6.344 14.664C6.02933 15.208 5.61867 15.608 5.112 15.864C4.60533 16.1147 4.04267 16.24 3.424 16.24ZM13.6876 16.24C12.5356 16.24 11.549 15.9893 10.7276 15.488C9.90629 14.9813 9.27429 14.2773 8.83162 13.376C8.39429 12.4747 8.17562 11.4293 8.17562 10.24C8.17562 9.05067 8.39429 8.00533 8.83162 7.104C9.27429 6.20267 9.90629 5.50133 10.7276 5C11.549 4.49333 12.5356 4.24 13.6876 4.24C14.8396 4.24 15.8263 4.49333 16.6476 5C17.4743 5.50133 18.1063 6.20267 18.5436 7.104C18.9863 8.00533 19.2076 9.05067 19.2076 10.24C19.2076 11.4293 18.9863 12.4747 18.5436 13.376C18.1063 14.2773 17.4743 14.9813 16.6476 15.488C15.8263 15.9893 14.8396 16.24 13.6876 16.24ZM13.6876 14.424C14.461 14.4293 15.1036 14.2587 15.6156 13.912C16.133 13.5653 16.5196 13.0773 16.7756 12.448C17.037 11.8187 17.1676 11.0827 17.1676 10.24C17.1676 9.39733 17.037 8.66667 16.7756 8.048C16.5196 7.424 16.133 6.93867 15.6156 6.592C15.1036 6.24533 14.461 6.06667 13.6876 6.056C12.9143 6.05067 12.2716 6.22133 11.7596 6.568C11.2476 6.91467 10.861 7.40267 10.5996 8.032C10.3436 8.66133 10.2156 9.39733 10.2156 10.24C10.2156 11.0827 10.3436 11.816 10.5996 12.44C10.8556 13.0587 11.2396 13.5413 11.7516 13.888C12.269 14.2347 12.9143 14.4133 13.6876 14.424ZM20.64 16V4.24H22.568V16H20.64ZM24.8044 16V4.24H26.7324V16H24.8044ZM33.5927 16V14.096H28.4887V12.296L32.1767 4.48H34.3767L30.6887 12.296H33.5927V9.296H35.5447V12.296H36.6248V14.096H35.5447V16H33.5927ZM37.2356 16L40.8676 4.48H43.6916L47.3236 16H45.3396L42.0436 5.664H42.4756L39.2196 16H37.2356ZM39.2596 13.504V11.704H45.3076V13.504H39.2596ZM48.61 16V4.24H50.538V16H48.61ZM52.7744 16V4.24H54.7024V16H52.7744Z" fill="black"/>
</svg>
