<svg width="216" height="52" viewBox="0 0 216 52" fill="none" xmlns="http://www.w3.org/2000/svg">
<g clip-path="url(#clip0_8_252)">
<rect width="52" height="52" rx="2" fill="white"/>
<circle cx="26" cy="26" r="11" stroke="#191919" stroke-width="4"/>
<circle cx="52" r="20" stroke="#191919" stroke-width="4"/>
<circle cx="52" cy="52" r="20" stroke="#191919" stroke-width="4"/>
<circle r="20" stroke="#191919" stroke-width="4"/>
<circle cy="52" r="20" stroke="#191919" stroke-width="4"/>
</g>
<rect x="56" width="160" height="52" rx="2" fill="#FEFEFE"/>
<path d="M184 12.5853V46.4055H180.101V12.5853H184Z" fill="#191919"/>
<path d="M178.542 12.5853V46.4055H174.643V12.5853H178.542Z" fill="#191919"/>
<path d="M161.478 47C159.87 47 158.41 46.6973 157.1 46.0918C155.789 45.4752 154.748 44.589 153.977 43.433C153.206 42.2661 152.82 40.8569 152.82 39.2055C152.82 37.7523 153.107 36.5743 153.68 35.6716C154.252 34.7578 155.018 34.0422 155.976 33.5248C156.934 33.0074 157.992 32.622 159.148 32.3688C160.316 32.1046 161.489 31.8954 162.668 31.7413C164.21 31.5431 165.46 31.3945 166.418 31.2954C167.387 31.1853 168.092 31.0037 168.533 30.7505C168.984 30.4973 169.21 30.0569 169.21 29.4294V29.2973C169.21 27.6679 168.764 26.4019 167.872 25.4991C166.991 24.5964 165.652 24.145 163.857 24.145C161.996 24.145 160.536 24.5523 159.479 25.367C158.421 26.1817 157.678 27.0514 157.248 27.9762L153.547 26.6551C154.208 25.1138 155.089 23.9138 156.191 23.0551C157.303 22.1853 158.515 21.5798 159.826 21.2386C161.147 20.8863 162.447 20.7101 163.725 20.7101C164.54 20.7101 165.476 20.8092 166.534 21.0074C167.602 21.1945 168.632 21.5853 169.623 22.1798C170.626 22.7743 171.457 23.6716 172.118 24.8716C172.779 26.0716 173.109 27.6789 173.109 29.6936V46.4055H169.21V42.9707H169.012C168.748 43.5211 168.307 44.1101 167.69 44.7376C167.073 45.3652 166.253 45.8991 165.228 46.3395C164.204 46.7798 162.954 47 161.478 47ZM162.073 43.4991C163.615 43.4991 164.914 43.1963 165.972 42.5908C167.04 41.9853 167.844 41.2037 168.384 40.2459C168.935 39.2881 169.21 38.2808 169.21 37.2239V33.6569C169.045 33.8551 168.682 34.0367 168.12 34.2019C167.569 34.356 166.93 34.4936 166.203 34.6147C165.487 34.7248 164.788 34.8239 164.105 34.9119C163.433 34.989 162.888 35.0551 162.469 35.1101C161.456 35.2422 160.509 35.4569 159.627 35.7541C158.757 36.0404 158.052 36.4752 157.513 37.0587C156.984 37.6312 156.72 38.4129 156.72 39.4037C156.72 40.7578 157.221 41.7817 158.223 42.4752C159.236 43.1578 160.52 43.4991 162.073 43.4991Z" fill="#191919"/>
<path d="M142.282 46.4055V21.0404H146.049V24.8716H146.314C146.776 23.6165 147.613 22.5982 148.825 21.8165C150.037 21.0349 151.402 20.644 152.922 20.644C153.209 20.644 153.567 20.6495 153.996 20.6606C154.426 20.6716 154.751 20.6881 154.971 20.7101V24.6734C154.839 24.6404 154.536 24.5908 154.062 24.5248C153.6 24.4477 153.11 24.4092 152.592 24.4092C151.358 24.4092 150.257 24.6679 149.288 25.1853C148.329 25.6918 147.569 26.3963 147.008 27.2991C146.457 28.1908 146.181 29.2092 146.181 30.3541V46.4055H142.282Z" fill="#191919"/>
<path d="M130.414 46.934C128.123 46.934 126.113 46.389 124.383 45.2991C122.665 44.2092 121.321 42.6844 120.352 40.7248C119.394 38.7652 118.915 36.4752 118.915 33.8551C118.915 31.2129 119.394 28.9064 120.352 26.9358C121.321 24.9652 122.665 23.4349 124.383 22.345C126.113 21.2551 128.123 20.7101 130.414 20.7101C132.705 20.7101 134.71 21.2551 136.428 22.345C138.157 23.4349 139.501 24.9652 140.459 26.9358C141.429 28.9064 141.913 31.2129 141.913 33.8551C141.913 36.4752 141.429 38.7652 140.459 40.7248C139.501 42.6844 138.157 44.2092 136.428 45.2991C134.71 46.389 132.705 46.934 130.414 46.934ZM130.414 43.433C132.154 43.433 133.586 42.9872 134.71 42.0954C135.833 41.2037 136.665 40.0312 137.205 38.578C137.744 37.1248 138.014 35.5505 138.014 33.8551C138.014 32.1597 137.744 30.5798 137.205 29.1156C136.665 27.6514 135.833 26.4679 134.71 25.5652C133.586 24.6624 132.154 24.211 130.414 24.211C128.674 24.211 127.242 24.6624 126.118 25.5652C124.995 26.4679 124.163 27.6514 123.623 29.1156C123.084 30.5798 122.814 32.1597 122.814 33.8551C122.814 35.5505 123.084 37.1248 123.623 38.578C124.163 40.0312 124.995 41.2037 126.118 42.0954C127.242 42.9872 128.674 43.433 130.414 43.433Z" fill="#191919"/>
<path d="M121.268 21.0404V24.3431H107.588V21.0404H121.268ZM111.685 46.4055V17.5395C111.685 16.0862 112.027 14.8752 112.709 13.9064C113.392 12.9376 114.279 12.211 115.369 11.7266C116.46 11.2422 117.611 11 118.823 11C119.781 11 120.563 11.0771 121.169 11.2312C121.774 11.3853 122.226 11.5284 122.523 11.6606L121.4 15.0294C121.202 14.9633 120.926 14.8807 120.574 14.7817C120.232 14.6826 119.781 14.633 119.219 14.633C117.93 14.633 117 14.9578 116.427 15.6073C115.865 16.2569 115.584 17.2092 115.584 18.4642V46.4055H111.685Z" fill="#191919"/>
<path d="M108.408 12.5853V46.4055H104.509V12.5853H108.408Z" fill="#191919"/>
<path d="M92.6408 46.934C90.3498 46.934 88.3396 46.389 86.6103 45.2991C84.8921 44.2092 83.5483 42.6844 82.579 40.7248C81.6207 38.7652 81.1416 36.4752 81.1416 33.8551C81.1416 31.2129 81.6207 28.9064 82.579 26.9358C83.5483 24.9652 84.8921 23.4349 86.6103 22.345C88.3396 21.2551 90.3498 20.7101 92.6408 20.7101C94.9319 20.7101 96.9366 21.2551 98.6548 22.345C100.384 23.4349 101.728 24.9652 102.686 26.9358C103.655 28.9064 104.14 31.2129 104.14 33.8551C104.14 36.4752 103.655 38.7652 102.686 40.7248C101.728 42.6844 100.384 44.2092 98.6548 45.2991C96.9366 46.389 94.9319 46.934 92.6408 46.934ZM92.6408 43.433C94.3812 43.433 95.8131 42.9872 96.9366 42.0954C98.0601 41.2037 98.8917 40.0312 99.4314 38.578C99.9711 37.1248 100.241 35.5505 100.241 33.8551C100.241 32.1597 99.9711 30.5798 99.4314 29.1156C98.8917 27.6514 98.0601 26.4679 96.9366 25.5652C95.8131 24.6624 94.3812 24.211 92.6408 24.211C90.9005 24.211 89.4686 24.6624 88.3451 25.5652C87.2217 26.4679 86.39 27.6514 85.8503 29.1156C85.3106 30.5798 85.0408 32.1597 85.0408 33.8551C85.0408 35.5505 85.3106 37.1248 85.8503 38.578C86.39 40.0312 87.2217 41.2037 88.3451 42.0954C89.4686 42.9872 90.9005 43.433 92.6408 43.433Z" fill="#191919"/>
<path d="M76.1341 12.5853H80.2316V36.7615C80.2316 38.9193 79.835 40.7523 79.042 42.2606C78.2489 43.7688 77.1309 44.9138 75.688 45.6954C74.2451 46.4771 72.5433 46.8679 70.5827 46.8679C68.7323 46.8679 67.0856 46.5321 65.6427 45.8606C64.1998 45.178 63.0652 44.2092 62.2391 42.9541C61.413 41.6991 61 40.2073 61 38.4789H65.0314C65.0314 39.4367 65.2682 40.2734 65.7418 40.989C66.2264 41.6936 66.8873 42.244 67.7244 42.6404C68.5615 43.0367 69.5143 43.2349 70.5827 43.2349C71.7613 43.2349 72.7636 42.9872 73.5897 42.4918C74.4158 41.9963 75.0437 41.2697 75.4732 40.3119C75.9138 39.3431 76.1341 38.1596 76.1341 36.7615V12.5853Z" fill="#191919"/>
<defs>
<clipPath id="clip0_8_252">
<rect width="52" height="52" rx="2" fill="white"/>
</clipPath>
</defs>
</svg>
