<svg width="12" height="12" viewBox="0 0 12 12" fill="none" xmlns="http://www.w3.org/2000/svg">
<path d="M3.30929 9.92784C3.00344 9.92784 2.74571 9.86254 2.53609 9.73196C2.32647 9.60481 2.16839 9.43299 2.06186 9.2165C1.95533 8.99656 1.90207 8.7457 1.90207 8.46392V5.03093C1.90207 4.58076 1.91925 4.14433 1.95362 3.72165C1.99142 3.29553 2.03953 2.90034 2.09795 2.53608C2.15636 2.16838 2.21822 1.85223 2.28351 1.58763C2.3488 1.31959 2.4519 1.07904 2.59279 0.865979C2.73712 0.652921 2.91581 0.479381 3.12887 0.345361C3.34193 0.21134 3.58764 0.128866 3.86599 0.0979381C4.03437 0.080756 4.30929 0.0601375 4.69073 0.0360825C5.07217 0.0120275 5.5086 0 6.00001 0C6.48798 0 6.92269 0.0120275 7.30413 0.0360825C7.68557 0.0601375 7.96221 0.080756 8.13403 0.0979381C8.41238 0.128866 8.65808 0.21134 8.87114 0.345361C9.0842 0.479381 9.26118 0.652921 9.40207 0.865979C9.5464 1.07904 9.65121 1.31959 9.7165 1.58763C9.78523 1.85223 9.84709 2.16838 9.90207 2.53608C9.96049 2.90034 10.0069 3.29553 10.0412 3.72165C10.079 4.14433 10.0979 4.58076 10.0979 5.03093V8.46392C10.0979 8.7457 10.0447 8.99656 9.93815 9.2165C9.83162 9.43299 9.67355 9.60481 9.46392 9.73196C9.2543 9.86254 8.99657 9.92784 8.69073 9.92784H3.30929ZM4.74228 1.51031H7.25258C7.34193 1.51031 7.41066 1.48454 7.45877 1.43299C7.51032 1.37801 7.53609 1.30928 7.53609 1.2268C7.53609 1.14089 7.51032 1.07388 7.45877 1.02577C7.41066 0.974227 7.34193 0.948454 7.25258 0.948454H4.74228C4.65636 0.948454 4.58764 0.974227 4.53609 1.02577C4.48454 1.07388 4.45877 1.14089 4.45877 1.2268C4.45877 1.30928 4.48454 1.37801 4.53609 1.43299C4.58764 1.48454 4.65636 1.51031 4.74228 1.51031ZM6.00001 6.74227C6.43987 6.74227 6.8952 6.73196 7.36599 6.71134C7.83678 6.69072 8.26461 6.66151 8.64949 6.62371C8.79726 6.60653 8.90379 6.55326 8.96908 6.46392C9.03781 6.37113 9.07217 6.25258 9.07217 6.10825V4.96907C9.07217 4.65292 9.06186 4.35739 9.04124 4.08247C9.02406 3.80412 9.00001 3.55842 8.96908 3.34536C8.94159 3.1323 8.91238 2.9622 8.88145 2.83505C8.8574 2.72165 8.80929 2.62887 8.73712 2.5567C8.66496 2.48454 8.57217 2.43986 8.45877 2.42268C8.19073 2.39519 7.86942 2.37113 7.49485 2.35052C7.12028 2.32646 6.622 2.31615 6.00001 2.31959C5.37458 2.32302 4.87286 2.33505 4.49485 2.35567C4.12028 2.37285 3.79382 2.39691 3.51547 2.42784C3.40551 2.44158 3.31616 2.48454 3.24743 2.5567C3.18214 2.62887 3.13575 2.72165 3.10825 2.83505C3.0842 2.9622 3.05671 3.1323 3.02578 3.34536C2.99485 3.55842 2.96908 3.80412 2.94846 4.08247C2.93128 4.35739 2.92269 4.65292 2.92269 4.96907V6.10825C2.92269 6.24914 2.95533 6.36598 3.02063 6.45876C3.08592 6.55155 3.19417 6.60653 3.34537 6.62371C3.61685 6.6512 3.98798 6.67698 4.45877 6.70103C4.92956 6.72509 5.44331 6.73883 6.00001 6.74227ZM3.73197 8.89175C3.91753 8.89175 4.07217 8.8299 4.19588 8.70619C4.32303 8.57904 4.38661 8.42268 4.38661 8.23711C4.38661 8.04811 4.32475 7.89175 4.20104 7.76804C4.07733 7.64433 3.92097 7.58247 3.73197 7.58247C3.54296 7.58247 3.38661 7.64433 3.26289 7.76804C3.14262 7.89175 3.08248 8.04811 3.08248 8.23711C3.08248 8.42268 3.14262 8.57904 3.26289 8.70619C3.38661 8.8299 3.54296 8.89175 3.73197 8.89175ZM8.26289 8.89175C8.44502 8.89175 8.59966 8.8299 8.72681 8.70619C8.85396 8.57904 8.91753 8.42268 8.91753 8.23711C8.91753 8.04811 8.85396 7.89175 8.72681 7.76804C8.6031 7.64089 8.44846 7.57732 8.26289 7.57732C8.07389 7.57732 7.91581 7.64089 7.78867 7.76804C7.66496 7.89175 7.6031 8.04811 7.6031 8.23711C7.6031 8.42268 7.66496 8.57904 7.78867 8.70619C7.91581 8.8299 8.07389 8.89175 8.26289 8.89175ZM2.64949 12C2.58076 12 2.52406 11.9794 2.47939 11.9381C2.43472 11.9003 2.40722 11.8505 2.39691 11.7887C2.39004 11.7302 2.40722 11.6684 2.44846 11.6031L3.64949 9.67526H4.52578L3.18042 11.8454C3.11513 11.9485 3.02578 12 2.91238 12H2.64949ZM3.09279 11.3969V10.701H8.91753V11.3969H3.09279ZM9.1031 12C8.98626 12 8.89691 11.9485 8.83506 11.8454L7.4897 9.67526H8.36599L9.55671 11.6031C9.59451 11.6684 9.60997 11.7302 9.6031 11.7887C9.59623 11.8471 9.57217 11.8969 9.53093 11.9381C9.4897 11.9794 9.433 12 9.36083 12H9.1031Z" fill="#DB5461"/>
</svg>
